<?xml version="1.0" encoding="UTF-8" standalone="no"?>
<!-- Uploaded to: SVG Repo, www.svgrepo.com, Generator: SVG Repo Mixer Tools -->

<svg
   width="48"
   height="48"
   viewBox="0 0 48 48"
   fill="none"
   version="1.1"
   id="svg2"
   sodipodi:docname="icon.svg"
   inkscape:version="1.3 (0e150ed6c4, 2023-07-21)"
   inkscape:export-filename="icon-128.png"
   inkscape:export-xdpi="256"
   inkscape:export-ydpi="256"
   xmlns:inkscape="http://www.inkscape.org/namespaces/inkscape"
   xmlns:sodipodi="http://sodipodi.sourceforge.net/DTD/sodipodi-0.dtd"
   xmlns="http://www.w3.org/2000/svg"
   xmlns:svg="http://www.w3.org/2000/svg">
  <defs
     id="defs2" />
  <sodipodi:namedview
     id="namedview2"
     pagecolor="#505050"
     bordercolor="#ffffff"
     borderopacity="1"
     inkscape:showpageshadow="0"
     inkscape:pageopacity="0"
     inkscape:pagecheckerboard="false"
     inkscape:deskcolor="#505050"
     inkscape:zoom="22.627417"
     inkscape:cx="19.290757"
     inkscape:cy="22.870485"
     inkscape:window-width="3440"
     inkscape:window-height="1351"
     inkscape:window-x="-8"
     inkscape:window-y="58"
     inkscape:window-maximized="1"
     inkscape:current-layer="g1"
     showguides="true"
     showgrid="true"
     inkscape:lockguides="false"
     inkscape:document-units="px">
    <sodipodi:guide
       position="23.989668,-11.56517"
       orientation="1,0"
       id="guide3"
       inkscape:locked="false" />
    <inkscape:grid
       id="grid4"
       units="px"
       originx="0"
       originy="0"
       spacingx="1"
       spacingy="1"
       empcolor="#0099e5"
       empopacity="0.30196078"
       color="#0099e5"
       opacity="0.14901961"
       empspacing="3"
       dotted="false"
       gridanglex="30"
       gridanglez="30"
       visible="true"
       snapvisiblegridlinesonly="true" />
    <sodipodi:guide
       position="23.995626,49.84691"
       orientation="1,0"
       id="guide4"
       inkscape:locked="false" />
  </sodipodi:namedview>
  <g
     id="g1"
     transform="matrix(5.7184299,0,0,5.7184299,-0.45078955,-0.17982403)"
     inkscape:label="g1">
    <g
       id="g2"
       transform="matrix(0.42208403,0,0,0.42208493,0.0455577,0.01817335)"
       inkscape:label="frame with gap"
       style="display:none"
       sodipodi:insensitive="true">
      <path
         d="m 11.265172,0.0314464 v 3.01853 c 0,0.3922526 -0.31799,0.7102423 -0.710242,0.7102423 H 0.078831 V 3.0499764 c 0,-1.9612775 1.589948,-3.01853 3.551211,-3.01853 z"
         fill="#212121"
         id="path2"
         style="opacity:0.5;fill:#00aebc;fill-opacity:1;stroke-width:1.42048"
         sodipodi:nodetypes="csscssc"
         inkscape:label="other-tabs"
         sodipodi:insensitive="true" />
      <path
         d="m 16.414447,0.0314464 c 1.961278,0 3.551212,1.5899343 3.551212,3.5512118 V 16.36702 c 0,1.961264 -1.589934,3.551212 -3.551212,3.551212 H 3.630042 c -1.961263,0 -3.551211,-1.589948 -3.551211,-3.551212 V 5.0031428 h 10.29854 c 1.176772,0 2.130727,-0.6580205 2.130727,-1.8347926 V 0.0314464 Z"
         fill="#212121"
         id="path1"
         style="opacity:0.8;fill:#00aebc;fill-opacity:1;stroke-width:1.42048"
         sodipodi:nodetypes="sssssscsscs"
         inkscape:label="new-tab"
         sodipodi:insensitive="true" />
    </g>
    <g
       id="g5"
       inkscape:label="frame (turquoise)"
       transform="matrix(0.42208402,0,0,0.42208493,0.0455577,0.01817335)"
       style="display:none"
       sodipodi:insensitive="true">
      <path
         id="path3"
         style="opacity:0.5;fill:#00aebc;fill-opacity:1;stroke-width:1.42048"
         inkscape:label="app"
         d="m 3.6303971,0.03144639 c -1.961261,0 -3.55156611,1.05702321 -3.55156611,3.01829871 v 0.7104736 1.263154 11.3433003 c 0,1.961262 1.59030511,3.551559 3.55156611,3.551559 H 16.414093 c 1.961276,0 3.551566,-1.590297 3.551566,-3.551559 V 3.5830049 c 0,-1.9612756 -1.59029,-3.55155851 -3.551566,-3.55155851 h -2.248759 -1.657235 z" />
      <path
         d="m 16.414447,0.0314464 c 1.961278,0 3.551212,1.5899343 3.551212,3.5512118 V 16.36702 c 0,1.961264 -1.589934,3.551212 -3.551212,3.551212 H 3.630042 c -1.961263,0 -3.551211,-1.589948 -3.551211,-3.551212 V 3.7602187 h 10.298477 c 1.176772,0 2.130791,-0.6581982 2.130791,-1.8349703 l -10e-7,-1.893802 z"
         fill="#212121"
         id="path6"
         style="display:inline;opacity:0.8;fill:#00aebc;fill-opacity:1;stroke-width:1.42048"
         sodipodi:nodetypes="sssssscsscs"
         inkscape:label="new-tab" />
    </g>
    <g
       id="g8"
       inkscape:label="frame (red)"
       transform="matrix(0.42208402,0,0,0.42208493,0.0455577,0.01817335)">
      <path
         id="path7"
         style="opacity:0.5;fill:#bc003e;fill-opacity:1;stroke-width:1.42048"
         inkscape:label="app"
         d="M 3.6303971 0.031446395 C 1.6691361 0.031446395 0.078830988 1.0884696 0.078830988 3.0497451 L 0.078830988 3.7602187 L 0.078830988 5.0233727 L 0.078830988 16.366673 C 0.078830988 18.327935 1.6691361 19.918232 3.6303971 19.918232 L 16.414093 19.918232 C 18.375369 19.918232 19.965659 18.327935 19.965659 16.366673 L 19.965659 3.5830049 C 19.965659 1.6217293 18.375369 0.031446395 16.414093 0.031446395 L 14.165334 0.031446395 L 12.508099 0.031446395 L 3.6303971 0.031446395 z " />
      <path
         d="m 16.414447,0.0314464 c 1.961278,0 3.551212,1.5899343 3.551212,3.5512118 V 16.36702 c 0,1.961264 -1.589934,3.551212 -3.551212,3.551212 H 3.630042 c -1.961263,0 -3.551211,-1.589948 -3.551211,-3.551212 V 3.7602187 h 10.298477 c 1.176772,0 2.130791,-0.6581982 2.130791,-1.8349703 l -10e-7,-1.893802 z"
         fill="#212121"
         id="path8"
         style="display:inline;opacity:0.8;fill:#bc003e;fill-opacity:1;stroke-width:1.42048"
         sodipodi:nodetypes="sssssscsscs"
         inkscape:label="new-tab" />
    </g>
    <path
       d="m 3.44514,3.0042904 c -0.3138849,0 -0.5683382,0.2544528 -0.5683382,0.568338 v 3.1477181 c 0,0.0498 0.02821,0.09532 0.072823,0.117463 0.044612,0.02215 0.09792,0.01714 0.137601,-0.01298 l 1.188562,-0.9016637 1.1885611,0.9016637 c 0.039679,0.03012 0.092998,0.03513 0.1376073,0.01298 0.044612,-0.02214 0.072817,-0.06766 0.072817,-0.117462 V 3.5726283 c 0,-0.3138852 -0.2544574,-0.568338 -0.5683382,-0.568338 z"
       fill="#212121"
       id="path1-1"
       style="display:none;fill:#ffffff;fill-opacity:1;stroke-width:0.174872"
       inkscape:label="bookmark-sign-48-96" />
    <path
       d="m 3.3413091,2.8509371 c -0.3531205,0 -0.6393804,0.2761615 -0.6393804,0.6168259 v 3.4162671 c 0,0.054051 0.031736,0.1034555 0.081925,0.127484 0.050188,0.024045 0.1101604,0.018598 0.1548012,-0.014089 l 1.3371326,-0.978589 1.3371312,0.9785897 c 0.044639,0.032686 0.1046224,0.038127 0.1548081,0.014089 0.050188,-0.024025 0.081919,-0.073432 0.081919,-0.1274841 V 3.4677629 c 0,-0.3406644 -0.2862646,-0.6168259 -0.6393805,-0.6168259 z"
       fill="#212121"
       id="path4"
       style="display:inline;fill:#ffffff;fill-opacity:1;stroke-width:0.19323"
       inkscape:label="bookmark-sign-32-64-128" />
  </g>
</svg>
