<svg id="Calque_1" data-name="Calque 1" version="1.1" viewBox="0 0 872 872" xmlns="http://www.w3.org/2000/svg">
<defs id="defs1"><style id="style1">.cls-1 {fill: #e00818;}</style></defs>
<path id="path1" d="m756.86 386.82c20.9-9.21 32.69-25.92 36.8-48.13 4.3-23.33 3.07-44.66-19.09-57.88-26.56-15.84-77.76-12.97-107.48-7.74-12.35 2.16-24.66 5.33-36.19 10.27l-25.01 176.41h66l8.76-62.41 16.62-0.02c42.96 57.94 85.32 116.31 128.45 174.1 7.74 8.7 16.19 13.93 28.08 14.57 4.4 0.23 12.08 0.46 16.29 0 0.5-0.06 0.83-0.04 1.16-0.52l-114.4-198.64zm-26.74-64.63c-0.58 6.66-2.41 17.33-3.88 23.87-2.16 9.71-10.4 18.6-21 18.6h-20.13l8.86-60.5c10.07-3.01 29.3-5.4 34.76 6.23 1.7 3.63 1.74 7.91 1.39 11.79z"/>
<path id="path2" d="m263.35 459.75h-66.01l19.66-140.59c-0.26-4.01-0.89-7.9-3.47-11.11-6.82-8.5-23.9-6.38-33.12-3.38l-21.65 155.09h-66.01l24.79-176.21c22.23-8.93 46.25-12.61 70.15-13.62 41.28-1.75 99.36 1.13 94.27 57.36l-18.61 132.48z"/>
<path id="path3" d="m603.49 312.1c-5.79-45.68-69.69-44.91-104.04-42.17-20.57 1.64-41.22 5.65-60.37 13.26l-11.52 79.67c-1.14 12.78-3.99 25.44-5.13 38.19-4.01 45.31 32.69 55.79 70.23 57.7l76.69-0.15c2.12-9.42 4.4-23.18-8.97-24.24-18.18-1.43-38.25 1.27-56.53 0.02-4.03-0.29-8.82-1.39-12-3.92-9.78-7.78-3.42-22.58-3.07-32.96 38.21 0.46 90.15-1.1 108.04-41.74 5.08-11.5 8.24-31.23 6.68-43.65zm-66.89 19.34c-1.64 10.71-1.64 22.93-11.83 29.45-2.49 1.6-8.57 3.78-11.44 3.78h-19.8l8.49-60.54c10.94-3.13 31.52-5.75 35.66 8.43 2.01 6.79-0.08 12.33-1.08 18.87z"/>
<path id="path4" d="m383.85 281.77h35.54c-0.81 6.68-3.46 14.77-8.28 19.64-7.88 7.96-20.32 4.72-30.44 5.38l-0.22 0.24-15.58 111.62c0.4 11.42 7.43 16.05 18.14 16.74 7.06 0.45 17.62-2.24 20.87 6.21 2.16 5.61-0.45 12.33-0.74 18.16-22.56-0.15-45.9 1.39-67.62-5.66-24.77-8.04-36.13-24.01-34.6-50.33 7.43-45.69 11.17-92.87 19.74-138.29 1.83-9.7 4.97-18.8 10.65-26.91 14.18-20.3 39.17-27.69 62.69-30.57z"/>
<path id="path5" d="m99.18 208-36.22 252.09c-11.66-1.02-24.4-3.8-34.75-9.41-33.48-18.17-21.98-55.01-17.94-85.66 0.09-0.7 0.14-0.96 0.25-1.81 6.86-51.54 15.86-102.81 22.66-154.35l0.5-0.86z"/>
<path id="path6" class="cls-1" d="m169.92 633.68h-40.96l12.2-86.44c0.33-10.71-8.69-12.21-17.41-10.98-0.97 0.14-4.96 0.88-5.22 1.54l-13.26 95.87h-40.96l12.21-87.8c-0.33-9.75-9.65-10.71-17.42-9.61-0.92 0.13-5.01 0.89-5.23 1.54l-13.76 95.88h-40.11l14.96-109.23c11.98-4.59 24.85-7.23 37.68-8.18 10.96-0.81 24.31-0.91 35.09 1.12 2.32 0.44 6.25 1.9 8.23 1.95 2.86 0.07 8.62-1.57 11.89-2.01 26.58-3.55 78.33-5.44 73.57 34.63z"/>
<path id="path7" class="cls-1" d="m527.03 633.68 16.64-119.22c1.06-6.03 2.61-11.24 5.9-16.44 8.6-13.59 24.54-18.43 39.74-20.33l-5.08 38.24c15.49 0.03 33.1-1.05 46.94 7.05 10.78 6.31 14.56 17.16 12.97 29.32l-11.5 81.38h-40.62l11.86-85.76c1.05-12.24-10.09-13.07-19.38-11.25-0.72 0.14-3.08 0.55-3.27 1.13l-13.25 95.88h-40.96z"/>
<path id="path8" class="cls-1" d="m396.71 588.5c12.12-5.38 19.8-15.3 22.52-28.23 9.5-45.06-31.98-47.11-65.33-44-12 1.12-24.07 3.61-35.22 8.12l-15.4 109.29h40.45l5.64-38.35c0.12-0.44 0.42-0.5 0.81-0.56 1.35-0.25 7.3-0.21 8.82-0.02 0.48 0.06 0.87 0.04 1.12 0.56l22.89 38.37h40.45zm-18.7-26.13c-1.24 5.96-4.3 10.34-10.48 11.87-0.46 0.1-2.22 0.56-2.47 0.56h-12.68l5.4-37.3c6.93-2.51 19.9-3.67 22.19 5.5 1 4.03-1.04 14.86-1.97 19.38z"/>
<path id="path9" class="cls-1" d="m752.14 521.84c-19.3-10.04-58.55-6.75-79.05-0.5-1.35 0.41-7.26 2.22-7.95 2.88-0.37 0.35-0.48 0.96-0.6 1.45l-10.23 73.01c-1.56 26.17 19.86 32.94 41.78 34.35l49.6-0.02c0.71-7.74 2.93-14.47-7.26-15.25-11.27-0.83-24.1 1.12-35.22 0.02-5.73-0.58-9.13-4.65-9.3-10.32l1.7-12.33c24.26 0.25 57.47-0.96 67.6-27.67 6.18-16.29 6.2-36.63-11.08-45.6zm-28.2 40.86c-1.35 6.06-6.14 12.1-12.93 12.1h-12.7l5.46-37.5c8.47-2.41 22.27-3.63 22.64 8.55 0.12 3.86-1.6 12.81-2.47 16.85z"/>
<path id="path10" class="cls-1" d="m255.07 515.91c-11.15-0.46-26.63-0.83-37.61 0-5.94 0.44-9.32 5.38-10.96 10.69-0.25 0.83-0.89 3.11-0.91 3.84 0 0.31 0.1 0.64 0.39 0.69h44.35c0.23 0 2.2 0.6 2.62 0.75 10.4 3.74 4.9 17.68 4.27 25.61-27.87-0.71-62.57 1.64-69.51 34.55-5.38 25.46 3.78 36.36 28.81 39.89 14.24 2.01 35.28 1.79 49.71 0.71 7.45-0.54 15.13-1.72 22-4.73l10.65-75.96c2.99-27.77-21.13-35.12-43.81-36.05zm-5.9 98.68c-0.33 1-1.78 1.1-2.74 1.33-8.57 2.05-20.21 1.22-19.97-10.15 0.08-3.69 1.85-13.43 2.82-17.16 1.66-6.47 7.06-11.1 13.93-11.1h11.35l-5.38 37.07z"/>
<path id="path11" class="cls-1" d="m528.35 535.52c-7.32-1.35-14.69-2.54-22.14-3.02-12.66-0.81-26.05-3.09-29.18 12.45-4.01 19.92-5.46 41.63-8.19 61.79 1.37 9.91 11.75 8.95 19.44 8.68 3.08-0.11 6.7-0.41 9.8-0.69 6.66-0.61 13.23-1.87 19.8-3.04-1.01 6.92-0.38 16.61-8.58 19-5.84 1.7-16.49 2.43-22.71 2.67-25.96 1-60.84-1.46-57.72-36.05 1.3-14.4 3.93-32.01 6.48-46.31 6.11-34.27 39.19-37.86 68.5-36.78 5.04 0.18 19.12 0.98 23.07 3.33 5.22 3.1 1.96 13.06 1.42 17.98z"/>
<path id="path12" class="cls-1" d="m747.05 488.85c-0.37 4.64-2.62 10.49-6.46 13.34-0.66 0.49-3.24 1.89-3.86 1.89h-47.9l2.54-15.23z"/>
</svg>
