<svg id="svg2" version="1.1" viewBox="0 0 800 800" xml:space="preserve" xmlns="http://www.w3.org/2000/svg" xmlns:cc="http://creativecommons.org/ns#" xmlns:dc="http://purl.org/dc/elements/1.1/" xmlns:rdf="http://www.w3.org/1999/02/22-rdf-syntax-ns#" xmlns:xlink="http://www.w3.org/1999/xlink"><script/><metadata id="metadata8"><rdf:RDF><cc:Work rdf:about=""><dc:format>image/svg+xml</dc:format><dc:type rdf:resource="http://purl.org/dc/dcmitype/StillImage"/></cc:Work></rdf:RDF></metadata><g id="g10" transform="matrix(1.25,0,0,-1.25,0,800)"><g id="g3547"><path id="path6404" d="m314.27 639.95c-176.75-3.1971-317.39-149.01-314.22-325.72 3.1844-176.69 149.01-317.35 325.77-314.18 176.65 3.2098 317.33 149.05 314.12 325.72-3.2098 176.7-149.01 317.38-325.68 314.18z" fill="#175f83"/><path id="path6390" d="m316.79 497.68c99.275 1.8015 181.21-77.264 183.01-176.53 1.8015-99.275-77.264-181.25-176.53-183.05-99.338-1.7635-181.28 77.266-183.07 176.57-1.7762 99.287 77.26 181.23 176.59 183.01z" fill="#fff"/></g><g id="g3511"><g id="g6410" transform="matrix(12.687 0 0 12.687 -1648.4 -1994.2)" fill="#fff"><g fill="#fff"><path id="path6402" d="m155.86 205.06 4.1719-0.57656-0.15626-1.125-0.1 0.0859c-0.307 0.261-0.68193 0.40981-1.2109 0.48281-0.264 0.037-0.60176 0.0474-0.99376 0.0344l-0.20936-1.5266 1.7281-0.23907-0.15156-1.1078-0.10625 0.14062c-0.159 0.212-0.49063 0.26706-1.0156 0.33906l-0.5625 0.0781-0.27187-1.975c0.488-0.132 0.90369-0.22306 1.2047-0.26406 0.71-0.1 1.3432-0.0287 1.9922 0.22031l0.19687 0.075-0.78281-1.3109-4.5578 0.63124 0.19375 0.10469c0.399 0.22 0.46187 0.49826 0.52187 0.93126l0.525 3.8156c0.059 0.434 0.0709 0.71869-0.25312 1.0297l-0.1625 0.15625z"/><path id="path6400" d="m150.87 204.53-0.15625-0.16719c-0.307-0.32699-0.27931-0.61063-0.19531-1.0406l0.77812-3.9922c0.523 0.038 0.94007 0.0842 1.2391 0.14218 0.694 0.136 1.2865 0.41569 1.8125 0.85469l0.1625 0.13438-0.31719-1.4938-4.5188-0.87968 0.14844 0.16406c0.306 0.335 0.27674 0.62 0.19374 1.05l-0.73593 3.7781c-0.083 0.43-0.16287 0.70518-0.57187 0.89218l-0.20625 0.0937 2.3672 0.46407z"/><path id="path6398" d="m143.94 201.95-0.0922-0.20626c-0.184-0.409-0.0659-0.66843 0.15312-1.0484l2.0344-3.5203c0.484 0.205 0.864 0.3855 1.125 0.5375 0.613 0.353 1.0819 0.80988 1.4359 1.3969l0.10938 0.17968 0.1875-1.5156-3.9859-2.3031 0.0859 0.20469c0.18 0.417 0.0602 0.67825-0.15781 1.0562l-1.9266 3.3328c-0.218 0.378-0.38269 0.61437-0.82969 0.65937l-0.225 0.0219 2.0859 1.2047z"/><path id="path6396" transform="matrix(.8 0 0 -.8 0 765.35)" d="m209.8 705.01 0.0586 0.27734c0.1125 0.54625-0.11258 0.82282-0.48633 1.2266l-3.2617 3.5371c-0.3825 0.41499-0.64266 0.65109-1.1914 0.58984l-0.2754-0.0312 2.1758 2.0078c1.6062 1.4812 2.8012 2.0896 4.125 2.0996h0.0391c1.0588 0 1.9491-0.38523 2.6504-1.1465 0.7875-0.85625 1.0335-1.9182 0.72851-3.1582-0.31125-1.2838-1.0541-2.1705-2.0703-3.1055l-2.4922-2.2969zm0.94532 2.3613c0.375 0.22625 0.71828 0.47906 1.0195 0.75781 0.76 0.69875 1.2152 1.4909 1.3164 2.2871 0.0975 0.7775-0.14453 1.509-0.70703 2.1152-0.52625 0.57375-1.2137 0.875-1.9824 0.875-0.8375 0-1.6948-0.365-2.416-1.0312-0.2325-0.21375-0.53688-0.54375-0.92188-1l3.6914-4.0039z"/><path id="path6392" d="m140.02 199.14-0.0344-0.22344c-0.072-0.443 0.11187-0.66231 0.42187-0.97031l2.7297-2.7156c0.299-0.296 0.53624-0.48943 0.98124-0.42343l0.21876 0.0344-1.6906-1.7047 0.0312 0.22032c0.065 0.451-0.11969 0.66956-0.42969 0.97656l-2.7297 2.7156c-0.298 0.297-0.53787 0.49018-0.97187 0.41718l-0.22344-0.0375 1.6969 1.7109z"/><path id="path6388" d="m136.71 195.76 4.1562-5.5312-0.0359-0.0437c-0.352-0.421-0.8185-0.61094-1.5125-0.61094-0.139 0-0.28544 7e-3 -0.44844 0.0234l-3.7359 0.32969c-0.174 0.017-0.37788 0.0328-0.59688 0.0328-0.265 0-0.51832-0.0256-0.77032-0.0766l-0.15-0.0297 0.78595 1.5 0.0641-0.0266c0.168-0.075 0.322-0.12093 0.475-0.13593l4.4047-0.42032-2.275 2.9656c-0.138 0.182-0.30693 0.3315-0.46093 0.4125-0.124 0.065-0.29125 0.053-0.63125-0.05l-0.16563-0.0484 0.89688 1.7094z"/><path id="path6386" d="m174.54 194.14 1.786-3.8188-1.0281-0.48125 0.0172 0.13125c0.051 0.399-0.0281 0.79525-0.25312 1.2812-0.113 0.24-0.2765 0.51156-0.5125 0.85156l-1.3953-0.65156 0.74062-1.5828-1.014-0.475 0.0609 0.16562c0.091 0.251-0.0406 0.55806-0.26562 1.0391l-0.24219 0.51563-1.8062-0.84531c0.16-0.492 0.30593-0.88281 0.43593-1.1578 0.306-0.651 0.7052-1.1441 1.2672-1.5531l0.17187-0.12344-1.5266-0.0547-1.95 4.1719 0.19374-0.10469c0.155-0.084 0.29351-0.12344 0.43751-0.12344 0.207 0 0.41456 0.0901 0.62656 0.18907l3.4875 1.6328c0.397 0.18599 0.64256 0.32988 0.72656 0.77188l0.0422 0.22187z"/><path id="path6384" d="m136.01 186.31c0.607 0 1.1-0.48831 1.1-1.0953 0-0.608-0.48519-1.1016-1.0922-1.1016-0.61 0-1.1031 0.50257-1.1031 1.1016 0 0.607 0.49332 1.0953 1.0953 1.0953z"/><path id="path6382" d="m174.4 186.31c0.609 0 1.1031-0.48831 1.1031-1.0953 0-0.608-0.48775-1.1016-1.0938-1.1016-0.609 0-1.1031 0.50257-1.1031 1.1016 0 0.607 0.49374 1.0953 1.0937 1.0953z"/><path id="path6380" d="m136.05 181.49c0.66722-0.0204 1.3364-0.28781 1.9297-0.78281 0.727-0.612 1.2186-1.4805 1.4656-2.5875 0.111-0.488 0.1805-1.0721 0.2125-1.7891l3e-3 -0.0609-1.1031-0.24531 0.0328 0.11406c0.182 0.666 0.20576 1.2574 0.0688 1.8594-0.299 1.337-1.1938 2.1656-2.3328 2.1656-0.183 0-0.37306-0.0221-0.56406-0.0641-0.709-0.157-1.244-0.54913-1.55-1.1281-0.309-0.586-0.37069-1.3458-0.17969-2.1938 0.088-0.392 0.24075-0.80031 0.46875-1.2453l1.1672 0.2625c0.427 0.097 0.698 0.18387 0.875 0.59687l0.0891 0.20782 0.36882-1.6484-2.9531-0.66094-0.025 0.0563c-0.377 0.871-0.63281 1.6205-0.78281 2.2875-0.219 0.971-0.23656 1.793-0.0516 2.514 0.288 1.168 1.1299 2.0417 2.1969 2.2797 0.21924 0.0487 0.44165 0.0693 0.66406 0.0625z"/><path id="path6378" d="m176.41 181.49 1.2812-0.83126-8e-3 -0.0453-0.78751-4.4859-0.0984 0.19531c-0.203 0.407-0.48093 0.48282-0.91093 0.55782l-3.7922 0.66718c-0.479 0.084-0.75293 0.0604-1.0359-0.21562l-0.16251-0.15782 0.72656 4.15 1.1188-0.19687-0.0906-0.0984c-0.271-0.297-0.432-0.66418-0.525-1.1922-0.046-0.258-0.0668-0.57519-0.0687-0.99219l1.5156-0.26563 0.30157 1.7188 1.1016-0.19375-0.14531-0.1c-0.217-0.153-0.28656-0.47912-0.37656-1.0031l-0.0969-0.55937 1.9625-0.34376c0.148 0.482 0.25481 0.89432 0.30781 1.1953 0.124 0.707 0.0766 1.3409-0.14843 1.9969l-0.0687 0.2z"/><path id="path6376" d="m140.19 175.1 1.5812-2.1875c0.42-0.584 0.653-1.1682 0.675-1.6922 0.02-0.514-0.16836-0.94068-0.53436-1.2047-0.539-0.386-1.2314-0.28469-2.1594 0.34531l-0.5625-2.6016c-0.071-0.309-0.10919-0.71807-0.11719-1.2141l-5e-3 -0.20312-0.51719 0.65468c-0.333 0.463-0.45212 1.0435-0.32812 1.5625l0.76719 3.2812 0.0922-0.0891c0.629-0.602 1.1297-0.89374 1.5297-0.89374 0.173 0 0.32968 0.0525 0.47968 0.16249 0.217 0.157 0.33475 0.38876 0.34375 0.66876 6e-3 0.297-0.1105 0.61924-0.3375 0.93124-0.097 0.133-0.25275 0.31025-0.46875 0.53125l-3.3891-2.4484c-0.355-0.257-0.568-0.44457-0.575-0.90157l-3e-3 -0.21874-1.4047 1.9437 0.20937-0.0641c0.42-0.132 0.69637 0.0191 1.0344 0.26405l3.1203 2.2547c0.355 0.258 0.56976 0.44275 0.56876 0.89375v0.225z"/><path id="path6374" d="m175.04 174.81 0.95-1.1969-0.025-0.0422-2.1797-3.9969-0.0312 0.21875c-0.062 0.449-0.30138 0.60932-0.68438 0.82032l-3.3828 1.8406c-0.228 0.126-0.43381 0.22812-0.65781 0.22812-0.124 0-0.25375-0.031-0.39375-0.1l-0.20156-0.0969 1.1516 2.1172 0.0297-0.22656c0.056-0.445 0.30512-0.61206 0.67812-0.81406l3.5688-1.9453c0.307 0.429 0.53724 0.77819 0.68124 1.0422 0.338 0.621 0.49888 1.2566 0.49688 1.9406v0.21094z"/><path id="path6372" transform="matrix(.8 0 0 -.8 0 765.35)" d="m209.67 743.07c-0.68125 0-1.4946 0.40157-2.3496 1.1641l-2.4844 2.2051 0.28515-0.0273c0.555-0.0512 0.82094 0.19375 1.1797 0.59375l3.1992 3.5977c0.36248 0.4075 0.57523 0.69515 0.45898 1.2539l-0.0586 0.26953 2.3496-2.0918c1.86-1.6525 2.3641-3.3229 1.3516-4.4629-0.63625-0.70875-1.6041-0.79071-2.7891-0.22071 0.32501-0.775 0.29711-1.3892-0.0879-1.8242-0.27-0.29875-0.63219-0.45703-1.0547-0.45703zm-0.65234 1.3789c0.21915 0.0208 0.41539 0.12133 0.57617 0.30273 0.22378 0.2525 0.29453 0.545 0.20703 0.875-0.09 0.345-0.35508 0.72219-0.76758 1.0859-0.165 0.15125-0.32734 0.27897-0.49609 0.39649l-1.3301-1.4961c0.215-0.2675 0.39797-0.46734 0.57422-0.62109 0.44141-0.39219 0.87109-0.57772 1.2363-0.54297zm2.5098 1.8984c0.37875 0 0.70235 0.13664 0.9336 0.40039 0.26501 0.29875 0.35039 0.66586 0.24414 1.0684-0.11125 0.425-0.42867 0.88086-0.91992 1.3184-0.18125 0.16125-0.47727 0.38476-0.85352 0.66601l-1.748-1.9668c0.28625-0.33 0.5268-0.58515 0.7168-0.7539 0.53375-0.475 1.1107-0.73242 1.627-0.73242z"/><path id="path6370" d="m144.15 169.99 3.5266-2.3125-0.625-0.94844-0.0547 0.12031c-0.165 0.366-0.4395 0.66182-0.8875 0.95782-0.219 0.142-0.49881 0.28724-0.88281 0.45624l-0.84375-1.2891 1.4609-0.95625-0.6125-0.93593-0.0375 0.17031c-0.053 0.263-0.32788 0.45531-0.77188 0.74531l-0.47656 0.3125-1.0922-1.6656c0.392-0.337 0.72212-0.58881 0.97812-0.75781 0.6-0.392 1.2002-0.60225 1.8922-0.65625l0.21249-0.0156-1.2688-0.84687-0.0406 0.025-3.8125 2.4984 0.22031 0.0141c0.455 0.028 0.63188 0.25019 0.87188 0.61719l2.1141 3.2187c0.238 0.366 0.37194 0.61751 0.21094 1.0375l-0.0813 0.21093z"/><path id="path6364" transform="matrix(.8 0 0 -.8 0 765.35)" d="m201.7 747.89c-0.63047-3e-3 -1.3002 0.0969-1.9726 0.29688-1.585 0.47125-2.7884 1.4448-3.3984 2.7461-0.39375 0.84-0.47102 1.7205-0.22852 2.543 0.31 1.045 1.1145 1.891 2.207 2.3223 0.52625 0.20499 1.1227 0.3125 1.7715 0.3125 0.625-1e-5 1.2705-0.0991 1.918-0.28907 1.2675-0.38 2.2922-1.0688 2.9609-2 0.75255-1.04 1.0095-2.2211 0.70704-3.2461-0.3275-1.1038-1.1184-1.9462-2.2246-2.375-0.51814-0.20443-1.1098-0.30805-1.7402-0.31055zm-0.59765 1.0586c1.395 0 2.5514 0.85101 2.9414 2.166 0.48625 1.6375-0.50476 3.222-2.3535 3.7695-0.34375 0.1025-0.69407 0.15625-1.0391 0.15625-1.3988 0-2.5587-0.85453-2.9512-2.1758-0.48375-1.6312 0.50742-3.2123 2.3574-3.7598 0.34375-0.10375 0.69868-0.15625 1.0449-0.15625z"/><path id="path238" d="m148.49 166.97 1.6781-0.32031 0.0172-0.025 3.2156-5.0203 0.6 3.1844c0.083 0.429 0.109 0.71405-0.2 1.039l-0.15469 0.16563 2.036-0.38594-0.20469-0.0969c-0.407-0.19-0.48619-0.46275-0.56719-0.89375l-0.95312-5.0328-0.0734 0.0172c-0.653 0.144-1.0066 0.62631-1.4016 1.2453l-2.7969 4.3328-0.6375-3.3719c-0.083-0.433-0.11693-0.71587 0.18907-1.0469l0.14843-0.16251-2.0234 0.38126 0.19843 0.0984c0.409 0.2 0.48775 0.47513 0.56875 0.90313l0.71562 3.7844c0.083 0.431 0.11 0.71662-0.2 1.0406l-0.15468 0.16406z"/></g></g><g id="g6457" transform="matrix(12.687 0 0 12.687 -1648.4 -1994.2)" fill="#175f83"><g fill="#175f83"><g id="g6429"><g fill="#175f83"><path id="path202" d="m156.89 185.84c0 0.362-0.1 0.717-0.283 0.99-0.065 0.095-0.221 0.32-0.302 0.441l0.247 0.178c0.083-0.111 0.229-0.302 0.277-0.367 0.205-0.284 0.537-0.49 0.905-0.607 0.875-0.287 1.798 0.145 2.064 0.963 0.266 0.817-0.228 1.71-1.103 1.995-0.343 0.11-0.714 0.125-1.027 0.035-0.111-0.027-0.373-0.109-0.513-0.151-0.022 0.1-0.054 0.198-0.094 0.291 0.132 0.046 0.359 0.127 0.434 0.151 0.333 0.107 0.635 0.358 0.859 0.673 0.542 0.744 0.415 1.756-0.278 2.262-0.695 0.505-1.698 0.311-2.239-0.434-0.212-0.292-0.34-0.638-0.352-0.968-6e-3 -0.113-0.013-0.387-0.015-0.533-0.104 0.012-0.205 0.012-0.305 0-4e-3 0.14-9e-3 0.38-9e-3 0.462 1e-3 0.349-0.147 0.712-0.372 1.023-0.543 0.746-1.545 0.939-2.24 0.434-0.696-0.505-0.82-1.516-0.278-2.262 0.213-0.292 0.5-0.523 0.809-0.634 0.107-0.041 0.367-0.132 0.503-0.181l-0.052-0.138-0.041-0.151c-0.135 0.042-0.365 0.109-0.443 0.136-0.333 0.106-0.722 0.077-1.09-0.041-0.873-0.284-1.368-1.178-1.102-1.994 0.268-0.817 1.189-1.25 2.065-0.965 0.343 0.111 0.651 0.317 0.854 0.575 0.071 0.087 0.237 0.307 0.325 0.421l0.247-0.179c-0.08-0.114-0.216-0.311-0.264-0.377-0.206-0.284-0.3-0.66-0.3-1.048 0-0.92 0.698-1.666 1.556-1.666 0.859 0 1.557 0.746 1.557 1.666m-5.066 1.781-0.045 0.046-0.033 0.032 0.014 0.072 6e-3 0.035 2.212 1.192-7e-3 -0.137v-0.078c0-0.136 0.023-0.275 0.065-0.414 0.052-0.158 0.13-0.301 0.229-0.422l0.085-0.108-2.526-0.218zm2.701 2.258c-0.134-0.099-0.245-0.218-0.33-0.348l-0.075-0.114-1.048 2.378 0.029 0.06 0.019 0.041 0.076 9e-3 0.034 1e-3 1.877-1.78-0.131-0.035c-0.159-0.041-0.31-0.11-0.45-0.212h-1e-3zm0.884-4.734-0.058-0.031-0.04-0.022-0.065 0.038-0.03 0.016-0.512 2.433 0.128-0.05c0.151-0.06 0.315-0.093 0.489-0.093 0.167 0 0.325 0.031 0.473 0.089l0.126 0.046-0.511-2.426zm0.269 4.944-0.129 0.036 1.878 1.773 0.065-9e-3 0.041-6e-3 0.035-0.064 0.012-0.034-1.051-2.385-0.075 0.118c-0.088 0.137-0.202 0.26-0.34 0.361-0.135 0.099-0.284 0.167-0.436 0.21m0.689-2.156c0.101 0.127 0.185 0.272 0.237 0.436 0.045 0.139 0.067 0.278 0.067 0.415l-2e-3 0.061-8e-3 0.141 2.21-1.197 0.011-0.065 8e-3 -0.044-0.056-0.051-0.023-0.023-2.533 0.222 0.089 0.105z"/><path id="path204" d="m152.7 185.96-0.138-7e-3 -0.092-3e-3c-0.242 0-0.5 0.069-0.732 0.17l-0.079 0.035-0.028-0.083c-0.134-0.431-0.25-0.957-0.25-1.473 0-0.299 0.037-0.595 0.137-0.867l0.018-0.05h0.054l0.073-1e-3c0.753 1e-3 1.549 0.428 2.112 0.835l0.071 0.051-0.058 0.064c-0.19 0.213-0.348 0.468-0.412 0.729l-0.034 0.139-0.099-0.103c-0.475-0.501-0.852-0.786-1.198-1.009 0.107 0.398 0.261 0.845 0.589 1.451l0.066 0.122z"/><path id="path206" d="m150.69 189 0.069-0.053 0.043 0.076c0.143 0.248 0.338 0.477 0.567 0.617l0.121 0.077-0.129 0.06c-0.623 0.297-1.009 0.569-1.33 0.829 0.111 7e-3 0.223 0.01 0.342 0.01 0.335 0 0.722-0.029 1.223-0.122l0.138-0.025-0.052 0.13c-0.075 0.186-0.108 0.397-0.108 0.61l0.01 0.226 9e-3 0.082h-0.086c-0.718-3e-3 -1.649-0.132-2.26-0.612l-0.04-0.031 0.014-0.051c0.212-0.745 0.889-1.401 1.469-1.823"/><path id="path208" d="m157.29 185.49-0.032-0.137c-0.065-0.262-0.223-0.519-0.415-0.73l-0.055-0.065 0.068-0.051c0.566-0.404 1.362-0.831 2.117-0.833l0.072 1e-3 0.052 3e-3 0.019 0.047c0.098 0.27 0.138 0.564 0.138 0.866 0 0.514-0.117 1.042-0.255 1.474l-0.026 0.082-0.078-0.035c-0.232-0.101-0.489-0.169-0.731-0.169l-0.092 3e-3 -0.143 0.01 0.068-0.124c0.329-0.609 0.484-1.056 0.591-1.453-0.348 0.226-0.723 0.51-1.201 1.01l-0.097 0.101z"/><path id="path210" d="m160.27 190.61c0.119 0 0.231-4e-3 0.34-0.01-0.323-0.261-0.709-0.532-1.333-0.829l-0.128-0.06 0.122-0.076c0.228-0.141 0.425-0.369 0.568-0.617l0.043-0.075 0.07 0.05c0.576 0.425 1.255 1.08 1.469 1.824l0.014 0.05-0.044 0.032c-0.61 0.481-1.541 0.61-2.258 0.614h-0.089l0.011-0.085 0.014-0.227c0-0.213-0.035-0.424-0.108-0.606l-0.057-0.133 0.14 0.026c0.503 0.094 0.892 0.122 1.226 0.122"/><path id="path212" d="m154.82 192.88 0.109-0.094 0.018 0.142c0.09 0.683 0.227 1.137 0.376 1.521 0.15-0.384 0.287-0.838 0.377-1.521l0.018-0.142 0.11 0.094c0.204 0.171 0.486 0.287 0.762 0.347l0.086 0.017-0.028 0.083c-0.224 0.681-0.637 1.527-1.281 1.96l-0.042 0.03-0.044-0.03c-0.646-0.433-1.056-1.279-1.281-1.96l-0.027-0.083 0.084-0.017c0.278-0.06 0.556-0.176 0.763-0.347"/></g></g><g id="g6437" fill="#175f83"><path id="path224" d="m159.7 175.17-0.035 0.139-0.1-0.102c-0.475-0.503-0.849-0.785-1.197-1.01 0.106 0.398 0.261 0.845 0.59 1.453l0.066 0.121-0.137-6e-3 -0.093-4e-3c-0.244 0-0.501 0.067-0.733 0.167l-0.076 0.037-0.03-0.081c-0.136-0.434-0.25-0.959-0.25-1.476 0-0.299 0.039-0.594 0.137-0.864l0.019-0.049h0.054 0.072c0.753 0 1.549 0.424 2.111 0.831l0.072 0.052-0.058 0.064c-0.19 0.209-0.347 0.467-0.412 0.728" fill="#175f83"/><path id="path226" d="m157.69 179.45 0.121 0.077-0.128 0.06c-0.623 0.296-1.011 0.57-1.33 0.829 0.109 5e-3 0.222 0.01 0.34 0.01 0.337 0 0.722-0.028 1.224-0.121l0.138-0.026-0.052 0.131c-0.075 0.184-0.108 0.396-0.108 0.608l0.012 0.225 8e-3 0.084h-0.086c-0.718-2e-3 -1.65-0.132-2.261-0.612l-0.04-0.032 0.015-0.048c0.213-0.747 0.888-1.403 1.467-1.825l0.07-0.051 0.044 0.072c0.142 0.248 0.337 0.478 0.566 0.619" fill="#175f83"/><path id="path228" d="m165.3 175.96-0.079-0.037c-0.232-0.101-0.486-0.167-0.73-0.167l-0.09 2e-3 -0.143 0.012 0.066-0.125c0.33-0.61 0.482-1.057 0.592-1.453-0.348 0.225-0.725 0.507-1.201 1.008l-0.098 0.1-0.032-0.135c-0.066-0.262-0.222-0.519-0.415-0.73l-0.055-0.063 0.068-0.051c0.565-0.408 1.362-0.832 2.114-0.833l0.076 1e-3h0.052l0.016 0.049c0.1 0.269 0.142 0.564 0.142 0.865 0 0.516-0.117 1.04-0.257 1.473l-0.026 0.084z" fill="#175f83"/><path id="path230" d="m165.46 181.33h-0.086l8e-3 -0.085 0.013-0.226c0-0.215-0.034-0.426-0.109-0.609l-0.055-0.13 0.143 0.024c0.5 0.094 0.889 0.122 1.221 0.122 0.121 0 0.232-2e-3 0.341-9e-3 -0.321-0.262-0.707-0.531-1.33-0.83l-0.13-0.063 0.123-0.074c0.227-0.141 0.424-0.368 0.568-0.616l0.042-0.076 0.069 0.053c0.578 0.421 1.256 1.078 1.471 1.824l0.012 0.048-0.042 0.033c-0.609 0.479-1.542 0.611-2.259 0.614" fill="#175f83"/><path id="path232" d="m161.14 182.69 0.109-0.095 0.017 0.143c0.09 0.684 0.226 1.137 0.377 1.522 0.149-0.385 0.287-0.838 0.377-1.522l0.018-0.143 0.11 0.095c0.205 0.171 0.485 0.288 0.762 0.347l0.085 0.018-0.027 0.082c-0.225 0.682-0.637 1.528-1.282 1.961l-0.042 0.028-0.043-0.028c-0.646-0.433-1.057-1.279-1.282-1.961l-0.025-0.082 0.082-0.018c0.279-0.059 0.557-0.176 0.764-0.347" fill="#175f83"/><path id="path236" d="m165.01 179.24c-0.342 0.109-0.712 0.125-1.026 0.037-0.11-0.03-0.374-0.108-0.513-0.15-0.024 0.097-0.055 0.197-0.093 0.29 0.131 0.045 0.356 0.126 0.432 0.15 0.334 0.107 0.636 0.359 0.861 0.67 0.54 0.746 0.416 1.759-0.28 2.265-0.696 0.503-1.699 0.31-2.239-0.435-0.212-0.292-0.338-0.637-0.35-0.966-8e-3 -0.113-0.014-0.387-0.018-0.533-0.101 7e-3 -0.202 7e-3 -0.304 0-2e-3 0.141-0.01 0.378-0.01 0.461 3e-3 0.35-0.145 0.711-0.373 1.023-0.541 0.745-1.542 0.94-2.237 0.435-0.696-0.505-0.82-1.518-0.279-2.264 0.213-0.292 0.502-0.521 0.808-0.635 0.109-0.039 0.366-0.13 0.506-0.178l-0.054-0.14-0.04-0.148c-0.136 0.039-0.365 0.107-0.443 0.132-0.333 0.109-0.722 0.082-1.089-0.039-0.876-0.283-1.37-1.177-1.104-1.996 0.268-0.815 1.191-1.248 2.066-0.964 0.342 0.112 0.649 0.315 0.854 0.575 0.07 0.088 0.236 0.309 0.324 0.422l0.247-0.178c-0.08-0.114-0.214-0.314-0.264-0.378-0.206-0.283-0.3-0.663-0.3-1.048 0-0.919 0.698-1.665 1.557-1.665s1.557 0.746 1.557 1.665c0 0.365-0.1 0.716-0.283 0.99-0.065 0.095-0.22 0.32-0.303 0.438l0.248 0.181c0.083-0.112 0.229-0.302 0.277-0.366 0.205-0.286 0.536-0.492 0.905-0.61 0.874-0.285 1.797 0.146 2.064 0.964s-0.228 1.71-1.104 1.995m-6.88-1.791-0.044 0.044-0.034 0.032 0.016 0.074 4e-3 0.032 2.212 1.195-5e-3 -0.138v-0.078c0-0.135 0.021-0.274 0.064-0.412 0.052-0.16 0.128-0.302 0.228-0.425l0.086-0.106-2.527-0.218zm2.702 2.257c-0.134-0.1-0.247-0.218-0.331-0.347l-0.076-0.116-1.047 2.379 0.03 0.061 0.017 0.039 0.078 9e-3 0.032 3e-3 1.88-1.78-0.133-0.035c-0.157-0.041-0.31-0.111-0.45-0.213m0.884-4.734-0.058-0.031-0.039-0.02-0.068 0.037-0.03 0.016-0.51 2.431 0.127-0.048c0.152-0.061 0.316-0.093 0.489-0.093 0.168 0 0.327 0.032 0.474 0.087l0.126 0.047-0.511-2.426zm0.269 4.943-0.13 0.037 1.879 1.775 0.063-0.012 0.044-4e-3 0.034-0.065 0.012-0.033-1.053-2.384-0.073 0.116c-0.09 0.139-0.201 0.259-0.342 0.361-0.134 0.1-0.282 0.167-0.434 0.209m3.156-2.459-0.026-0.021-2.53 0.22 0.088 0.104c0.102 0.128 0.183 0.274 0.237 0.439 0.045 0.138 0.067 0.277 0.067 0.415l-1e-3 0.059-0.01 0.142 2.212-1.199 0.012-0.064 7e-3 -0.042-0.056-0.053z" fill="#175f83"/></g><use id="use6455" transform="translate(-12.983)" width="100%" height="100%" xlink:href="#g6437"/></g></g></g></g></svg>
