<svg id="svg5" width="550" height="550" version="1.1" viewBox="0 0 22 22" xmlns="http://www.w3.org/2000/svg">
 <path id="path1" d="m18.998 7.8116-1e-4 0.0425c-1e-4 0.0179-3e-4 0.0358-5e-4 0.0537 4e-4 0.0209 6e-4 0.042 6e-4 0.0632 0 3.3363-2.5993 6.2894-4.3386 8.2657-0.5047 0.5734-0.937 1.0646-1.2124 1.459-0.9796 1.4029-1.4966 2.9227-1.6327 3.5072 0 0.4402-0.3654 0.7971-0.8163 0.7971s-0.8163-0.3569-0.8163-0.7971c-0.1361-0.5845-0.6531-2.1043-1.6327-3.5072-0.2754-0.3944-0.7077-0.8856-1.2124-1.459-1.7393-1.9763-4.3386-4.9294-4.3386-8.2657 0-0.0212 2e-4 -0.0423 6e-4 -0.0632-4e-4 -0.032-6e-4 -0.0641-6e-4 -0.0962 0-4.3142 3.5817-7.8116 8-7.8116 4.4183 0 8 3.4974 8 7.8116zm-8 2.8696c1.7132 0 3.102-1.3562 3.102-3.029 0-1.6729-1.3888-3.029-3.102-3.029-1.7132 0-3.102 1.3561-3.102 3.029 0 1.6728 1.3888 3.029 3.102 3.029z" clip-rule="evenodd" fill="#34a851" fill-rule="evenodd"/>
 <path id="path2" d="m18.104 4.2186c-0.9796-1.8431-2.6893-3.2568-4.755-3.8758l-4.5945 5.2187c0.5649-0.57798 1.3615-0.93804 2.2443-0.93804 1.7132 0 3.102 1.3561 3.102 3.0289 0 0.6825-0.2311 1.3122-0.6211 1.8187z" fill="#4285f5"/>
 <path id="path3" d="m7.4295 16.342c-0.0307-0.0349-0.0616-0.07-0.0928-0.1054-1.1465-1.3027-2.6667-3.0298-3.5698-5.0114l4.7754-5.4239c-0.4052 0.5118-0.6463 1.1538-0.6463 1.8508 0 1.6728 1.3889 3.029 3.1021 3.029 0.8678 0 1.6524-0.348 2.2154-0.9089z" fill="#f9bb0e"/>
 <path id="path4" d="m4.8912 2.7656c-1.1808 1.3612-1.8929 3.1225-1.8929 5.0461 0 0.0321 2e-4 0.0642 6e-4 0.0962-4e-4 0.0209-6e-4 0.042-6e-4 0.0632 0 1.1371 0.30196 2.2298 0.76889 3.2543l4.7673-5.4148z" fill="#e74335"/>
 <path id="path5" d="m13.348 0.34254c-0.7431-0.22266-1.5323-0.34254-2.3502-0.34254-2.4483 0-4.6397 1.0739-6.1071 2.7655l3.6433 3.045 0.0079-9e-3c0.0663-0.0837 0.1369-0.164 0.2116-0.2404z" fill="#1a73e6"/>
</svg>
